<svg xmlns="http://www.w3.org/2000/svg" viewBox="0 0 8.467 8.467"><g stroke="#586597" transform="translate(0 -269.442) scale(.26458)"><path fill="#fe8099" stroke="none" d="m 23.5,1030.3622 a 7.5,7.5 0 0 1 -7.5,7.5 7.5,7.5 0 0 1 -7.5,-7.5 7.5,7.5 0 0 1 7.5,-7.5 7.5,7.5 0 0 1 7.5,7.5 z"/><path fill="#7fc8f0" stroke="none" d="m 28.5,1038.3622 a 7.5,7.5 0 0 1 -7.5,7.5 7.5,7.5 0 0 1 -7.5,-7.5 7.5,7.5 0 0 1 7.5,-7.5 7.5,7.5 0 0 1 7.5,7.5 z"/><path fill="#ffd771" stroke="none" d="m 18.5,1038.3622 a 7.5,7.5 0 0 1 -7.5,7.5 7.5,7.5 0 0 1 -7.5,-7.5 7.5,7.5 0 0 1 7.5,-7.5 7.5,7.5 0 0 1 7.5,7.5 z"/><path fill="#fd998b" style="line-height:normal;font-variant-ligatures:normal;font-variant-position:normal;font-variant-caps:normal;font-variant-numeric:normal;font-variant-alternates:normal;font-feature-settings:normal;text-indent:0;text-align:start;text-decoration-line:none;text-decoration-style:solid;text-decoration-color:#000;text-transform:none;text-orientation:mixed;shape-padding:0;isolation:auto;mix-blend-mode:normal" stroke="none" d="m -1088.3789,1580.0508 c -0.6778,0 -1.3296,0.099 -1.9492,0.2715 l -0.2207,0.061 0.041,0.2246 c 0.4338,2.3879 2.0305,4.3619 4.1875,5.3184 l 0.2851,0.1269 0.061,-0.3047 c 0.2999,-1.4695 1.0231,-2.7872 2.0293,-3.8281 l 0.1953,-0.2011 -0.2227,-0.1719 c -1.2204,-0.9356 -2.7463,-1.4961 -4.4062,-1.4961 z" color="#000" font-family="sans-serif" font-weight="400" overflow="visible" transform="translate(1099.38 -548.939)"/><path fill="#c89ae1" style="line-height:normal;font-variant-ligatures:normal;font-variant-position:normal;font-variant-caps:normal;font-variant-numeric:normal;font-variant-alternates:normal;font-feature-settings:normal;text-indent:0;text-align:start;text-decoration-line:none;text-decoration-style:solid;text-decoration-color:#000;text-transform:none;text-orientation:mixed;shape-padding:0;isolation:auto;mix-blend-mode:normal" stroke="none" d="m -1078.3789,1580.0508 c -1.6599,0 -3.1858,0.5605 -4.4063,1.4961 l -0.2226,0.1719 0.1953,0.2011 c 1.006,1.0408 1.7275,2.3585 2.0273,3.8281 l 0.061,0.3047 0.2851,-0.1269 c 2.1576,-0.9568 3.7541,-2.9315 4.1875,-5.3203 l 0.041,-0.2246 -0.2207,-0.061 c -0.6195,-0.1724 -1.2708,-0.2695 -1.9473,-0.2695 z" color="#000" font-family="sans-serif" font-weight="400" overflow="visible" transform="translate(1099.38 -548.939)"/><path fill="#88868a" style="line-height:normal;font-variant-ligatures:normal;font-variant-position:normal;font-variant-caps:normal;font-variant-numeric:normal;font-variant-alternates:normal;font-feature-settings:normal;text-indent:0;text-align:start;text-decoration-line:none;text-decoration-style:solid;text-decoration-color:#000;text-transform:none;text-orientation:mixed;shape-padding:0;isolation:auto;mix-blend-mode:normal" stroke="none" d="m -1083.3789,1582.043 -0.1777,0.1816 c -0.9915,1.0116 -1.687,2.3135 -1.9512,3.7676 l -0.041,0.2246 0.2207,0.061 c 0.6191,0.1721 1.2709,0.2735 1.9492,0.2735 0.6772,0 1.3284,-0.1 1.9473,-0.2715 l 0.2207,-0.059 -0.041,-0.2266 c -0.2638,-1.4543 -0.9577,-2.7555 -1.9492,-3.7675 z" color="#000" font-family="sans-serif" font-weight="400" overflow="visible" transform="translate(1099.38 -548.939)"/><path fill="#a2d483" style="line-height:normal;font-variant-ligatures:normal;font-variant-position:normal;font-variant-caps:normal;font-variant-numeric:normal;font-variant-alternates:normal;font-feature-settings:normal;text-indent:0;text-align:start;text-decoration-line:none;text-decoration-style:solid;text-decoration-color:#000;text-transform:none;text-orientation:mixed;shape-padding:0;isolation:auto;mix-blend-mode:normal" stroke="none" d="m -1081.1426,1586.7168 -0.3125,0.08 c -0.6194,0.1592 -1.2606,0.2539 -1.9238,0.2539 -0.5949,0 -1.1666,-0.098 -1.7266,-0.2285 v -0.033 h -0.2617 l -0.057,0.4414 -0.1934,-0.2032 c 0,0.076 -0.014,0.1665 -0.014,0.2735 0,1.9771 0.7917,3.7676 2.0723,5.0742 l 0.1777,0.1816 0.1797,-0.1816 c 1.2799,-1.3065 2.0703,-3.0976 2.0703,-5.0742 0,-0.1148 -0.014,-0.2003 -0.014,-0.2617 z" color="#000" font-family="sans-serif" font-weight="400" overflow="visible" transform="translate(1099.38 -548.939)"/><path fill="none" stroke-linecap="round" stroke-linejoin="round" d="m 23.5,1030.3622 a 7.5,7.5 0 0 1 -7.5,7.5 7.5,7.5 0 0 1 -7.5,-7.5 7.5,7.5 0 0 1 7.5,-7.5 7.5,7.5 0 0 1 7.5,7.5 z"/><path fill="none" stroke-linecap="round" stroke-linejoin="round" d="m 28.5,1038.3622 a 7.5,7.5 0 0 1 -7.5,7.5 7.5,7.5 0 0 1 -7.5,-7.5 7.5,7.5 0 0 1 7.5,-7.5 7.5,7.5 0 0 1 7.5,7.5 z"/><path fill="none" stroke-linecap="round" stroke-linejoin="round" d="m 18.5,1038.3622 a 7.5,7.5 0 0 1 -7.5,7.5 7.5,7.5 0 0 1 -7.5,-7.5 7.5,7.5 0 0 1 7.5,-7.5 7.5,7.5 0 0 1 7.5,7.5 z"/></g></svg>